<svg height="512pt" viewBox="0 0 512 512" width="512pt" xmlns="http://www.w3.org/2000/svg"><path d="m116.621094 241 60 30h158.757812l60-30h28.648438l-40-60h-256.054688l-40 60zm0 0"/><path d="m0 0h512v30h-512zm0 0"/><path d="m421 61h30v90h-30zm0 0"/><path d="m361 61h30v60h-30zm0 0"/><path d="m301 61h30v90h-30zm0 0"/><path d="m241 61h30v60h-30zm0 0"/><path d="m181 61h30v90h-30zm0 0"/><path d="m121 61h30v60h-30zm0 0"/><path d="m61 61h30v90h-30zm0 0"/><path d="m361 436v15h120v-60h-75c-24.8125 0-45 20.1875-45 45zm0 0"/><path d="m342.453125 301h-172.90625l-60-30h-109.546875v30h31v60h75c41.351562 0 75 33.648438 75 75v15h150v-15c0-41.351562 33.648438-75 75-75h75v-60h31v-30h-109.546875zm-41.453125 90h-90v-30h90zm0 0"/><path d="m106 391h-75v60h120v-15c0-24.8125-20.1875-45-45-45zm0 0"/><path d="m61 481h90v31h-90zm0 0"/><path d="m361 481h90v31h-90zm0 0"/></svg>